<?xml version="1.0" standalone="no"?>
<!DOCTYPE svg PUBLIC "-//W3C//DTD SVG 20010904//EN"
 "http://www.w3.org/TR/2001/REC-SVG-20010904/DTD/svg10.dtd">
<svg version="1.0" xmlns="http://www.w3.org/2000/svg"
 width="256.000000pt" height="215.000000pt" viewBox="0 0 256.000000 215.000000"
 preserveAspectRatio="xMidYMid meet">

<g transform="translate(0.000000,215.000000) scale(0.100000,-0.100000)"
fill="#000000" stroke="none">
<path d="M370 475 l0 -105 75 0 c68 0 75 2 75 19 0 17 -8 20 -47 23 l-48 3 -3
83 c-3 80 -3 82 -27 82 -25 0 -25 0 -25 -105z"/>
<path d="M610 475 c0 -105 0 -105 24 -105 24 0 25 1 28 105 l3 105 -27 0 -28
0 0 -105z"/>
<path d="M780 475 l0 -105 68 0 c81 0 112 17 112 61 0 17 -6 32 -15 35 -8 4
-15 12 -15 19 0 7 7 15 15 19 21 8 19 39 -3 59 -14 13 -38 17 -90 17 l-72 0 0
-105z m108 66 c25 -16 9 -46 -26 -49 -30 -3 -32 -1 -32 27 0 26 4 31 23 31 12
0 28 -4 35 -9z m17 -106 c0 -16 -8 -21 -37 -23 -35 -3 -38 -1 -38 23 0 24 3
26 38 23 29 -2 37 -7 37 -23z"/>
<path d="M1065 475 l0 -105 28 0 c23 0 27 4 27 30 0 25 4 30 24 30 17 0 27 -9
36 -30 10 -24 19 -30 42 -30 l30 0 -20 33 c-19 33 -19 34 0 57 24 29 19 88 -9
107 -10 8 -47 13 -87 13 l-71 0 0 -105z m132 49 c10 -26 -11 -49 -46 -52 -30
-3 -31 -2 -31 32 0 34 2 36 35 36 24 0 38 -5 42 -16z"/>
<path d="M1406 533 c-10 -26 -29 -72 -42 -101 -13 -29 -24 -55 -24 -57 0 -3
12 -5 26 -5 17 0 28 6 31 20 4 17 14 20 54 20 38 0 51 -4 59 -20 6 -12 21 -20
36 -20 29 0 30 -3 -21 121 -32 80 -36 84 -67 87 -31 3 -34 0 -52 -45z m69 -39
c21 -51 20 -54 -21 -54 -38 0 -38 0 -13 68 11 30 16 28 34 -14z"/>
<path d="M1663 475 l0 -105 28 0 c26 0 29 4 29 30 0 25 4 30 24 30 17 0 28 -9
38 -30 10 -23 19 -30 41 -30 l29 0 -20 33 c-19 33 -19 34 -1 56 25 30 24 76
-1 101 -16 16 -33 20 -93 20 l-73 0 -1 -105z m132 30 c0 -27 -3 -30 -37 -33
-38 -3 -38 -3 -38 33 0 36 0 36 38 33 34 -3 37 -6 37 -33z"/>
<path d="M1979 505 c23 -41 41 -88 41 -105 0 -25 4 -30 25 -30 22 0 25 4 25
37 0 23 13 60 35 100 19 35 35 66 35 68 0 3 -10 5 -23 5 -18 0 -29 -11 -46
-45 -12 -25 -24 -45 -26 -45 -2 0 -16 20 -31 45 -20 34 -32 45 -51 45 l-24 0
40 -75z"/>
</g>
</svg>
